<svg data-v-423bf9ae="" xmlns="http://www.w3.org/2000/svg" viewBox="0 0 484.98177228900647 60" class="font"><!----><!----><defs data-v-423bf9ae=""><linearGradient data-v-423bf9ae="" gradientTransform="rotate(25)" id="1cad84b1-b234-4809-8375-323b7d2bcb70" x1="0%" y1="0%" x2="100%" y2="0%"><stop data-v-423bf9ae="" offset="0%" style="stop-color: rgb(235, 110, 0); stop-opacity: 1;"></stop><stop data-v-423bf9ae="" offset="100%" style="stop-color: rgb(243, 188, 230); stop-opacity: 1;"></stop></linearGradient></defs><g data-v-423bf9ae="" id="56b617df-6f6c-4ed4-9641-565b92124d08" fill="url(#1cad84b1-b234-4809-8375-323b7d2bcb70)" transform="matrix(5.474452972412109,0,0,5.474452972412109,-2.62774395942688,-14.72628116607666)"><path d="M6.69 13.47L6.69 13.40L4.96 7.67L6.57 2.94L6.57 2.87L4.26 2.87L2.84 7.31L2.70 7.31C2.72 7.13 2.73 6.96 2.73 6.73L2.73 2.87L0.48 2.87L0.48 13.47L2.73 13.47L2.73 9.49C2.73 9.23 2.73 8.95 2.70 8.71L2.84 8.71L4.17 13.47ZM10.43 9.41C10.43 10.28 10.42 10.65 10.28 11.05C10.22 11.21 10.07 11.28 9.77 11.28C9.35 11.28 9.21 11.21 9.16 11.03C9.06 10.72 9.02 10.39 9.02 8.05C9.02 5.75 9.06 5.40 9.16 5.12C9.21 4.94 9.35 4.86 9.70 4.86C10.07 4.86 10.25 4.94 10.29 5.12C10.35 5.32 10.39 5.63 10.39 6.75L12.45 6.75C12.46 6.40 12.47 6.08 12.47 5.81C12.47 3.56 12.08 2.69 9.70 2.69C8.37 2.69 7.71 2.90 7.35 3.53C6.99 4.17 6.83 4.80 6.83 8.08C6.83 11.35 6.99 12.17 7.35 12.78C7.71 13.43 8.37 13.65 9.77 13.65C12.14 13.65 12.50 12.61 12.50 10.36C12.50 10.07 12.49 9.74 12.46 9.41ZM20.94 6.16C21.03 5.89 21.06 5.60 21.06 5.03C21.06 3.23 20.38 2.69 18.49 2.69C16.41 2.69 15.88 3.37 15.88 5.36C15.88 6.76 15.92 7.60 16.49 8.11C17.07 8.62 17.95 8.83 18.63 9.30C19.01 9.56 19.17 9.77 19.17 10.32C19.17 11.21 19.04 11.40 18.48 11.40C17.92 11.40 17.81 11.13 17.81 10.32C17.81 10.16 17.81 10.04 17.84 9.93L16.00 9.93C15.92 10.26 15.89 10.88 15.89 11.41C15.89 13.08 16.69 13.65 18.44 13.65C20.58 13.65 21.21 12.88 21.21 10.36C21.21 8.60 20.93 8.11 20.31 7.67C19.77 7.31 19.21 7.18 18.37 6.69C18.02 6.48 17.86 6.31 17.86 5.70C17.86 5.04 17.96 4.83 18.49 4.83C19.03 4.83 19.14 5.04 19.14 5.70C19.14 5.95 19.14 6.02 19.12 6.16ZM25.41 10.21C25.41 11.20 25.33 11.28 24.78 11.28C24.23 11.28 24.14 11.20 24.14 10.21L24.14 2.87L21.88 2.87L21.88 10.21C21.88 11.96 22.09 12.40 22.40 12.88C22.76 13.47 23.39 13.65 24.75 13.65C26.10 13.65 26.73 13.47 27.09 12.88C27.38 12.40 27.55 11.96 27.59 10.21L27.59 2.87L25.41 2.87ZM36.81 13.47L36.79 2.87L33.70 2.87L32.61 7.48L32.51 7.48L31.53 2.87L28.42 2.87L28.42 13.47L30.42 13.47L30.42 7.11L30.51 7.11L32.13 13.47L33.10 13.47L34.71 7.11L34.79 7.11L34.79 13.47ZM46.09 13.47L46.07 2.87L42.98 2.87L41.89 7.48L41.79 7.48L40.81 2.87L37.70 2.87L37.70 13.47L39.70 13.47L39.70 7.11L39.79 7.11L41.41 13.47L42.38 13.47L43.99 7.11L44.07 7.11L44.07 13.47ZM51.69 13.47L51.69 11.12L49.21 11.12L49.21 9.11L51.66 9.11L51.66 6.97L49.21 6.97L49.21 5.11L51.70 5.11L51.70 2.87L47.01 2.87L47.01 13.47ZM58.39 13.47L58.39 13.40C58.30 13.09 58.28 12.85 58.07 11.13C57.92 9.90 57.76 9.27 57.61 8.93C57.51 8.68 57.39 8.60 57.27 8.50L57.27 8.41C57.88 8.06 58.18 7.91 58.18 5.73C58.18 3.68 57.69 2.87 55.79 2.87L52.58 2.87L52.58 13.47L54.78 13.47L54.78 9.34L55.12 9.34C55.40 9.34 55.52 9.48 55.62 10.46C55.90 12.91 55.94 13.12 56.06 13.47ZM54.78 7.36L54.78 5.05L55.34 5.05C55.78 5.05 55.96 5.26 55.96 6.10C55.96 7.08 55.80 7.36 55.40 7.36ZM65.25 9.41C65.25 10.28 65.24 10.65 65.10 11.05C65.04 11.21 64.89 11.28 64.60 11.28C64.18 11.28 64.04 11.21 63.98 11.03C63.88 10.72 63.84 10.39 63.84 8.05C63.84 5.75 63.88 5.40 63.98 5.12C64.04 4.94 64.18 4.86 64.53 4.86C64.89 4.86 65.07 4.94 65.11 5.12C65.17 5.32 65.21 5.63 65.21 6.75L67.27 6.75C67.28 6.40 67.30 6.08 67.30 5.81C67.30 3.56 66.91 2.69 64.53 2.69C63.20 2.69 62.54 2.90 62.17 3.53C61.81 4.17 61.66 4.80 61.66 8.08C61.66 11.35 61.81 12.17 62.17 12.78C62.54 13.43 63.20 13.65 64.60 13.65C66.96 13.65 67.33 12.61 67.33 10.36C67.33 10.07 67.31 9.74 67.28 9.41ZM73.57 13.47L72.51 2.87L68.81 2.87L67.68 13.47L69.89 13.47L70.06 11.02L71.12 11.02L71.30 13.47ZM71.02 8.88L70.15 8.88L70.50 5.08L70.66 5.08ZM82.57 13.47L82.56 2.87L79.46 2.87L78.37 7.48L78.27 7.48L77.29 2.87L74.19 2.87L74.19 13.47L76.19 13.47L76.19 7.11L76.27 7.11L77.90 13.47L78.86 13.47L80.47 7.11L80.56 7.11L80.56 13.47ZM85.69 13.47L85.69 10.28L86.67 10.28C88.56 10.28 89.07 9.28 89.07 6.51C89.07 3.79 88.56 2.87 86.67 2.87L83.50 2.87L83.50 13.47ZM85.69 8.09L85.69 5.08L86.23 5.08C86.66 5.08 86.84 5.33 86.84 6.45C86.84 7.73 86.69 8.09 86.28 8.09Z"></path></g><!----><!----></svg>